<?xml version="1.0" encoding="UTF-8" standalone="no"?>
<!-- Created with Inkscape (http://www.inkscape.org/) -->

<svg
   xmlns:dc="http://purl.org/dc/elements/1.1/"
   xmlns:cc="http://creativecommons.org/ns#"
   xmlns:rdf="http://www.w3.org/1999/02/22-rdf-syntax-ns#"
   xmlns:svg="http://www.w3.org/2000/svg"
   xmlns="http://www.w3.org/2000/svg"
   xmlns:sodipodi="http://sodipodi.sourceforge.net/DTD/sodipodi-0.dtd"
   xmlns:inkscape="http://www.inkscape.org/namespaces/inkscape"
   width="32"
   height="32"
   viewBox="0 0 8.4666659 8.4666659"
   version="1.1"
   id="svg1690"
   inkscape:version="0.92.4 (5da689c313, 2019-01-14)"
   sodipodi:docname="icon-docker.svg">
  <defs
     id="defs1684" />
  <sodipodi:namedview
     id="base"
     pagecolor="#ffffff"
     bordercolor="#666666"
     borderopacity="1.0"
     inkscape:pageopacity="0.0"
     inkscape:pageshadow="2"
     inkscape:zoom="6.6908777"
     inkscape:cx="38.046995"
     inkscape:cy="-8.9975307"
     inkscape:document-units="mm"
     inkscape:current-layer="layer1"
     showgrid="false"
     units="px"
     inkscape:window-width="1596"
     inkscape:window-height="856"
     inkscape:window-x="0"
     inkscape:window-y="20"
     inkscape:window-maximized="1" />
  <metadata
     id="metadata1687">
    <rdf:RDF>
      <cc:Work
         rdf:about="">
        <dc:format>image/svg+xml</dc:format>
        <dc:type
           rdf:resource="http://purl.org/dc/dcmitype/StillImage" />
        <dc:title></dc:title>
      </cc:Work>
    </rdf:RDF>
  </metadata>
  <g
     inkscape:label="Layer 1"
     inkscape:groupmode="layer"
     id="layer1"
     transform="translate(0,-288.53334)">
    <path
       style="stroke-width:0.72138757;fill:#191714;fill-opacity:1"
       d="M 16 0 A 15.999999 15.999999 0 0 0 0 16 A 15.999999 15.999999 0 0 0 16 32 A 15.999999 15.999999 0 0 0 32 16 A 15.999999 15.999999 0 0 0 16 0 z M 15.064453 6 L 17.917969 6 L 17.917969 8.7832031 L 15.064453 8.7832031 L 15.064453 6 z M 8.0644531 9.5703125 L 10.917969 9.5703125 L 10.917969 12.353516 L 8.0644531 12.353516 L 8.0644531 9.5703125 z M 11.566406 9.5703125 L 14.417969 9.5703125 L 14.417969 12.353516 L 11.566406 12.353516 L 11.566406 9.5703125 z M 15.064453 9.5703125 L 17.917969 9.5703125 L 17.917969 12.353516 L 15.064453 12.353516 L 15.064453 9.5703125 z M 25.134766 11.175781 L 25.492188 11.457031 C 26.394468 12.164384 27.152071 13.151906 27.287109 14.279297 C 28.373454 13.966012 29.648273 14.040815 30.607422 14.580078 L 31 14.800781 L 30.792969 15.195312 C 29.982733 16.737473 28.289252 17.213631 26.634766 17.130859 C 24.158459 23.150589 18.766963 26 12.228516 26 C 8.8508652 26 5.7521366 24.769067 3.9863281 21.84375 L 3.9570312 21.794922 L 3.7011719 21.283203 C 3.1042911 19.995178 2.9060231 18.587259 3.0390625 17.179688 L 3.0800781 16.755859 L 21.847656 16.755859 C 22.516247 16.755859 23.204199 16.639893 23.835938 16.431641 C 24.146739 16.328195 24.495538 16.185765 24.802734 16.005859 C 24.398584 15.49105 24.191506 14.841915 24.130859 14.201172 C 24.048467 13.330709 24.228485 12.198208 24.832031 11.515625 L 25.134766 11.175781 z M 4.5644531 13.140625 L 7.4160156 13.140625 L 7.4160156 15.923828 L 4.5644531 15.923828 L 4.5644531 13.140625 z M 8.0644531 13.140625 L 10.917969 13.140625 L 10.917969 15.923828 L 8.0644531 15.923828 L 8.0644531 13.140625 z M 11.566406 13.140625 L 14.417969 13.140625 L 14.417969 15.923828 L 11.566406 15.923828 L 11.566406 13.140625 z M 15.064453 13.140625 L 17.917969 13.140625 L 17.917969 15.923828 L 15.064453 15.923828 L 15.064453 13.140625 z M 18.564453 13.140625 L 21.417969 13.140625 L 21.417969 15.923828 L 18.564453 15.923828 L 18.564453 13.140625 z M 8.546875 19.246094 C 7.7149469 19.246094 7.0390625 19.905887 7.0390625 20.71875 C 7.0390625 21.530177 7.7163949 22.191406 8.546875 22.191406 C 9.3795408 22.191406 10.056641 21.530177 10.056641 20.71875 C 10.056641 19.905887 9.3788307 19.246094 8.546875 19.246094 z "
       transform="matrix(0.26458333,0,0,0.26458333,0,288.53334)"
       id="use942" />
  </g>
</svg>
