<?xml version="1.0" encoding="UTF-8" standalone="no"?>
<!-- Generator: Adobe Illustrator 16.0.2, SVG Export Plug-In . SVG Version: 6.00 Build 0)  -->

<svg
   xmlns:dc="http://purl.org/dc/elements/1.1/"
   xmlns:cc="http://creativecommons.org/ns#"
   xmlns:rdf="http://www.w3.org/1999/02/22-rdf-syntax-ns#"
   xmlns:svg="http://www.w3.org/2000/svg"
   xmlns="http://www.w3.org/2000/svg"
   xmlns:xlink="http://www.w3.org/1999/xlink"
   xmlns:sodipodi="http://sodipodi.sourceforge.net/DTD/sodipodi-0.dtd"
   xmlns:inkscape="http://www.inkscape.org/namespaces/inkscape"
   version="1.1"
   id="Layer_1"
   x="0px"
   y="0px"
   width="32"
   height="32"
   viewBox="0 0 32 32"
   enable-background="new 0 0 115 88"
   xml:space="preserve"
   sodipodi:docname="icon-docker.svg"
   inkscape:version="0.92.4 (5da689c313, 2019-01-14)"><metadata
   id="metadata957"><rdf:RDF><cc:Work
       rdf:about=""><dc:format>image/svg+xml</dc:format><dc:type
         rdf:resource="http://purl.org/dc/dcmitype/StillImage" /><dc:title></dc:title></cc:Work></rdf:RDF></metadata><defs
   id="defs955" /><sodipodi:namedview
   pagecolor="#ffffff"
   bordercolor="#666666"
   borderopacity="1"
   objecttolerance="10"
   gridtolerance="10"
   guidetolerance="10"
   inkscape:pageopacity="0"
   inkscape:pageshadow="2"
   inkscape:window-width="1596"
   inkscape:window-height="856"
   id="namedview953"
   showgrid="false"
   inkscape:snap-bbox="true"
   inkscape:bbox-paths="true"
   inkscape:snap-page="true"
   inkscape:zoom="5.3756186"
   inkscape:cx="55.958797"
   inkscape:cy="-23.938119"
   inkscape:window-x="0"
   inkscape:window-y="20"
   inkscape:window-maximized="1"
   inkscape:current-layer="Layer_1" />
<circle
   style="color:#000000;display:inline;overflow:visible;visibility:visible;fill:#191714;fill-opacity:1;stroke:none;stroke-width:1.01932657;stroke-linecap:butt;stroke-linejoin:round;stroke-miterlimit:4;stroke-dasharray:none;stroke-dashoffset:0;stroke-opacity:1;marker:none;paint-order:normal;enable-background:accumulate"
   id="path1575"
   cx="16"
   cy="16"
   r="16" /><g
   id="g940"
   transform="translate(0,-56)">
	<defs
   id="defs913">
		<path
   id="SVGID_1_"
   d="m 34,15.167 c 0,0 -7.333,5.833 -9.333,6 C 22.667,21.333 14,27 14,27 L 8.333,26.834 2,19.667 10.667,84.419 h 100.581 l -70.51,-70.51 z"
   inkscape:connector-curvature="0" />
	</defs>
	<clipPath
   id="SVGID_2_">
		<use
   xlink:href="#SVGID_1_"
   overflow="visible"
   id="use915"
   style="overflow:visible"
   x="0"
   y="0"
   width="100%"
   height="100%" />
	</clipPath>
	<defs
   id="defs921">
		<filter
   id="Adobe_OpacityMaskFilter"
   filterUnits="userSpaceOnUse"
   x="2"
   y="13.909"
   width="109.248"
   height="70.510002">
			<feColorMatrix
   type="matrix"
   values="1 0 0 0 0  0 1 0 0 0  0 0 1 0 0  0 0 0 1 0"
   id="feColorMatrix918" />
		</filter>
	</defs>
	<mask
   maskUnits="userSpaceOnUse"
   x="2"
   y="13.909"
   width="109.248"
   height="70.51"
   id="SVGID_3_">
		<g
   id="g930"
   style="filter:url(#Adobe_OpacityMaskFilter)">
			
				<linearGradient
   id="SVGID_4_"
   gradientUnits="userSpaceOnUse"
   x1="-605.09723"
   y1="1884.1406"
   x2="-604.09772"
   y2="1884.1406"
   gradientTransform="matrix(0,-77.1078,-77.1078,0,145338.47,-46576.375)">
				<stop
   offset="0"
   style="stop-color:#000000"
   id="stop923" />
				<stop
   offset="1"
   style="stop-color:#333333"
   id="stop925" />
			</linearGradient>
			<rect
   x="2"
   y="13.909"
   clip-path="url(#SVGID_2_)"
   width="109.248"
   height="70.510002"
   id="rect928"
   style="fill:url(#SVGID_4_)" />
		</g>
	</mask>
	
		<linearGradient
   id="SVGID_5_"
   gradientUnits="userSpaceOnUse"
   x1="-605.09723"
   y1="1884.1406"
   x2="-604.09772"
   y2="1884.1406"
   gradientTransform="matrix(0,-77.1078,-77.1078,0,145338.47,-46576.375)">
		<stop
   offset="0"
   style="stop-color:#FFFFFF"
   id="stop933" />
		<stop
   offset="1"
   style="stop-color:#000000"
   id="stop935" />
	</linearGradient>
	
</g>
<g
   inkscape:groupmode="layer"
   id="layer1"
   inkscape:label="bg"
   transform="translate(0,-56)" /><g
   id="g950"
   transform="matrix(0.72280222,0,0,0.71999424,33.48449,9.2835862)">
	<defs
   id="defs943">
		<path
   id="SVGID_6_"
   d="m 18.692,15.471 h 3.947 V 11.605 H 18.692 Z M 4.164,15.47 H 8.111 V 11.604 H 4.164 Z m 3.947,-3.866 h 0.002 z m 0.897,3.866 h 3.947 V 11.604 H 9.008 Z m 4.843,0 h 3.946 v -3.866 h -3.946 z m 9.684,0 h 3.946 V 11.604 H 23.535 Z M 7.588,22.131 c 0,-1.129 0.936,-2.046 2.087,-2.046 1.151,0 2.089,0.917 2.089,2.046 0,1.127 -0.937,2.046 -2.089,2.046 -1.149,0 -2.087,-0.919 -2.087,-2.046 M 32.206,9.347 c -0.835,0.948 -1.084,2.522 -0.97,3.731 0.084,0.89 0.369,1.791 0.928,2.506 -0.425,0.25 -0.908,0.447 -1.338,0.591 -0.874,0.289 -1.825,0.45 -2.75,0.45 H 2.111 l -0.056,0.589 c -0.184,1.955 0.089,3.911 0.915,5.7 l 0.354,0.711 0.041,0.066 c 2.443,4.063 6.729,5.774 11.402,5.774 9.046,0 16.507,-3.957 19.933,-12.318 2.289,0.115 4.631,-0.547 5.752,-2.689 l 0.286,-0.549 -0.542,-0.305 c -1.327,-0.749 -3.091,-0.853 -4.594,-0.418 v 10e-4 C 35.416,11.62 34.367,10.248 33.118,9.265 L 32.623,8.876 Z M 9.008,10.512 h 3.947 V 6.645 H 9.008 Z m 4.843,0 h 3.946 V 6.645 h -3.946 z m 4.841,0 h 3.947 V 6.645 h -3.947 z m 0,-4.958 h 3.947 V 1.687 h -3.947 z"
   inkscape:connector-curvature="0" />
	</defs>
	<clipPath
   id="SVGID_7_">
		<use
   xlink:href="#SVGID_6_"
   overflow="visible"
   id="use945"
   style="overflow:visible"
   x="0"
   y="0"
   width="100%"
   height="100%" />
	</clipPath>
	
<rect
   x="-3"
   y="-3.313"
   clip-path="url(#SVGID_7_)"
   width="48.737999"
   height="37.778"
   id="rect948"
   style="fill:#ffffff;fill-opacity:1"
   transform="translate(-44.175621,-6.2475728)" /></g>
</svg>