<svg xmlns="http://www.w3.org/2000/svg" version="1.2" viewBox="0 0 32 32"><path d="m16 0.5c-8.777 0-15.89 7.115-15.89 15.89 0 7.024 4.554 12.98 10.87 15.08 0.7965 0.1448 1.086-0.3468 1.086-0.766 0-0.3773-0.01522-1.376-0.02282-2.702-4.42 0.96-5.354-2.13-5.354-2.13-0.72-1.83-1.765-2.32-1.765-2.32-1.441-0.987 0.1105-0.968 0.1105-0.968 1.593 0.1143 2.435 1.639 2.435 1.639 1.418 2.428 3.72 1.726 4.623 1.322 0.1448-1.029 0.5564-1.73 1.01-2.127-3.529-0.4002-7.237-1.764-7.237-7.854 0-1.734 0.6174-3.152 1.635-4.264-0.1639-0.4001-0.7088-2.016 0.1562-4.204 0 0 1.334-0.4268 4.367 1.627 1.269-0.3506 2.63-0.5297 3.979-0.5335 1.349 0.0039 2.71 0.1829 3.979 0.5335 3.034-2.054 4.367-1.627 4.367-1.627 0.8651 2.188 0.3201 3.803 0.1563 4.204 1.018 1.113 1.635 2.53 1.635 4.264 0 6.105-3.716 7.45-7.256 7.843 0.5716 0.4916 1.079 1.46 1.079 2.942 0 2.123-0.01902 3.838-0.01902 4.36 0 0.423 0.2858 0.9184 1.094 0.766 6.31-2.12 10.86-8.07 10.86-15.09 0-8.775-7.11-15.89-15.89-15.89" fill-rule="evenodd" fill="#191714"/></svg>
