<?xml version="1.0" encoding="UTF-8" standalone="no"?>
<svg
   xmlns:dc="http://purl.org/dc/elements/1.1/"
   xmlns:cc="http://creativecommons.org/ns#"
   xmlns:rdf="http://www.w3.org/1999/02/22-rdf-syntax-ns#"
   xmlns:svg="http://www.w3.org/2000/svg"
   xmlns="http://www.w3.org/2000/svg"
   xmlns:sodipodi="http://sodipodi.sourceforge.net/DTD/sodipodi-0.dtd"
   xmlns:inkscape="http://www.inkscape.org/namespaces/inkscape"
   enable-background="new 0 0 100 100"
   xml:space="preserve"
   viewBox="0 0 32 32"
   version="1.1"
   y="0px"
   x="0px"
   id="svg1719"
   sodipodi:docname="icon-manual.svg"
   inkscape:version="0.92.4 (5da689c313, 2019-01-14)"><metadata
     id="metadata1725"><rdf:RDF><cc:Work
         rdf:about=""><dc:format>image/svg+xml</dc:format><dc:type
           rdf:resource="http://purl.org/dc/dcmitype/StillImage" /></cc:Work></rdf:RDF></metadata><defs
     id="defs1723" /><sodipodi:namedview
     pagecolor="#ffffff"
     bordercolor="#666666"
     borderopacity="1"
     objecttolerance="10"
     gridtolerance="10"
     guidetolerance="10"
     inkscape:pageopacity="0"
     inkscape:pageshadow="2"
     inkscape:window-width="1596"
     inkscape:window-height="856"
     id="namedview1721"
     showgrid="false"
     inkscape:zoom="7.375"
     inkscape:cx="-9.0847458"
     inkscape:cy="16"
     inkscape:window-x="0"
     inkscape:window-y="20"
     inkscape:window-maximized="0"
     inkscape:current-layer="g1717" /><g
     transform="matrix(.4108 0 0 .4108 -4.54 -4.54)"
     id="g1717"><path
       d="m82.06 22.28c-0.03-0.87-0.74-1.57-1.62-1.58v-0.003h-3.36l-0.001 60.4 0.001 0.01c0 0.9-0.721 1.627-1.617 1.644v0.005l-50.9-0.01c-0.816 0-1.488-0.595-1.619-1.375v-3.602h47.4v-0.003c0.011 0 0.021 0.003 0.031 0.003 0.91 0 1.646-0.735 1.646-1.646 0-0.006-0.002-0.012-0.002-0.012l0.002-62.2c0-0.91-0.736-1.647-1.646-1.646-0.01 0-0.02 0.003-0.03 0.003v-0.01h-50.76c-0.91 0-1.646 0.736-1.646 1.646 0 0.021 0.006 0.042 0.006 0.063v72.05c-0.001 0.02-0.006 0.039-0.006 0.059s0.005 0.039 0.006 0.059v0.076h0.008c0.07 0.845 0.769 1.511 1.632 1.511v0.001l60.83 0.002h0.029v-0.003c0.896-0.016 1.617-0.743 1.617-1.643l-0.001-0.01zm-59.15 1.588c0-0.908 0.736-1.646 1.646-1.646h40.84c0.909 0 1.646 0.738 1.646 1.646l-0.001 12.36v0.002c0 0.91-0.737 1.646-1.646 1.646h-40.84c-0.909 0-1.646-0.736-1.646-1.646l0.001-12.35c0-0.003-0.001-0.006-0.001-0.009z"
       id="path1715"
       style="fill:#191714;fill-opacity:1" /></g></svg>